<mxfile host="app.diagrams.net" agent="Mozilla/5.0 (X11; Linux x86_64; rv:138.0) Gecko/20100101 Firefox/138.0" version="26.2.14">
  <diagram name="Page-1" id="2YBvvXClWsGukQMizWep">
    <mxGraphModel dx="1485" dy="785" grid="1" gridSize="10" guides="1" tooltips="1" connect="1" arrows="1" fold="1" page="1" pageScale="1" pageWidth="850" pageHeight="1100" math="0" shadow="0">
      <root>
        <mxCell id="0" />
        <mxCell id="1" parent="0" />
        <mxCell id="aM9ryv3xv72pqoxQDRHE-1" value="LoginScreenController" style="shape=umlLifeline;perimeter=lifelinePerimeter;whiteSpace=wrap;html=1;container=0;dropTarget=0;collapsible=0;recursiveResize=0;outlineConnect=0;portConstraint=eastwest;newEdgeStyle={&quot;edgeStyle&quot;:&quot;elbowEdgeStyle&quot;,&quot;elbow&quot;:&quot;vertical&quot;,&quot;curved&quot;:0,&quot;rounded&quot;:0};" parent="1" vertex="1">
          <mxGeometry x="150" y="90" width="130" height="280" as="geometry" />
        </mxCell>
        <mxCell id="aM9ryv3xv72pqoxQDRHE-2" value="" style="html=1;points=[];perimeter=orthogonalPerimeter;outlineConnect=0;targetShapes=umlLifeline;portConstraint=eastwest;newEdgeStyle={&quot;edgeStyle&quot;:&quot;elbowEdgeStyle&quot;,&quot;elbow&quot;:&quot;vertical&quot;,&quot;curved&quot;:0,&quot;rounded&quot;:0};" parent="aM9ryv3xv72pqoxQDRHE-1" vertex="1">
          <mxGeometry x="60" y="70" width="10" height="120" as="geometry" />
        </mxCell>
        <mxCell id="MV6OpVxTvDD_PxkE7c-I-17" value="[loginState]:login" style="html=1;align=left;spacingLeft=2;endArrow=block;rounded=0;edgeStyle=orthogonalEdgeStyle;curved=0;rounded=0;" parent="aM9ryv3xv72pqoxQDRHE-1" edge="1">
          <mxGeometry relative="1" as="geometry">
            <mxPoint x="70" y="125" as="sourcePoint" />
            <Array as="points">
              <mxPoint x="100" y="155" />
            </Array>
            <mxPoint x="75" y="155" as="targetPoint" />
          </mxGeometry>
        </mxCell>
        <mxCell id="aM9ryv3xv72pqoxQDRHE-5" value="GUIController" style="shape=umlLifeline;perimeter=lifelinePerimeter;whiteSpace=wrap;html=1;container=0;dropTarget=0;collapsible=0;recursiveResize=0;outlineConnect=0;portConstraint=eastwest;newEdgeStyle={&quot;edgeStyle&quot;:&quot;elbowEdgeStyle&quot;,&quot;elbow&quot;:&quot;vertical&quot;,&quot;curved&quot;:0,&quot;rounded&quot;:0};" parent="1" vertex="1">
          <mxGeometry x="350" y="90" width="100" height="1470" as="geometry" />
        </mxCell>
        <mxCell id="aM9ryv3xv72pqoxQDRHE-6" value="" style="html=1;points=[];perimeter=orthogonalPerimeter;outlineConnect=0;targetShapes=umlLifeline;portConstraint=eastwest;newEdgeStyle={&quot;edgeStyle&quot;:&quot;elbowEdgeStyle&quot;,&quot;elbow&quot;:&quot;vertical&quot;,&quot;curved&quot;:0,&quot;rounded&quot;:0};" parent="aM9ryv3xv72pqoxQDRHE-5" vertex="1">
          <mxGeometry x="45" y="180" width="10" height="1250" as="geometry" />
        </mxCell>
        <mxCell id="MV6OpVxTvDD_PxkE7c-I-19" value="" style="html=1;points=[[0,0,0,0,5],[0,1,0,0,-5],[1,0,0,0,5],[1,1,0,0,-5]];perimeter=orthogonalPerimeter;outlineConnect=0;targetShapes=umlLifeline;portConstraint=eastwest;newEdgeStyle={&quot;curved&quot;:0,&quot;rounded&quot;:0};" parent="aM9ryv3xv72pqoxQDRHE-5" vertex="1">
          <mxGeometry x="50" y="200" width="10" height="90" as="geometry" />
        </mxCell>
        <mxCell id="MV6OpVxTvDD_PxkE7c-I-20" value="[!creatingNewReview]:initialize()" style="html=1;align=left;spacingLeft=2;endArrow=block;rounded=0;edgeStyle=orthogonalEdgeStyle;curved=0;rounded=0;" parent="aM9ryv3xv72pqoxQDRHE-5" target="MV6OpVxTvDD_PxkE7c-I-19" edge="1">
          <mxGeometry relative="1" as="geometry">
            <mxPoint x="55" y="180" as="sourcePoint" />
            <Array as="points">
              <mxPoint x="85" y="210" />
            </Array>
          </mxGeometry>
        </mxCell>
        <mxCell id="MV6OpVxTvDD_PxkE7c-I-26" value="" style="html=1;points=[[0,0,0,0,5],[0,1,0,0,-5],[1,0,0,0,5],[1,1,0,0,-5]];perimeter=orthogonalPerimeter;outlineConnect=0;targetShapes=umlLifeline;portConstraint=eastwest;newEdgeStyle={&quot;curved&quot;:0,&quot;rounded&quot;:0};" parent="aM9ryv3xv72pqoxQDRHE-5" vertex="1">
          <mxGeometry x="55" y="240" width="10" height="40" as="geometry" />
        </mxCell>
        <mxCell id="MV6OpVxTvDD_PxkE7c-I-27" value="loadCourseList()" style="html=1;align=left;spacingLeft=2;endArrow=block;rounded=0;edgeStyle=orthogonalEdgeStyle;curved=0;rounded=0;" parent="aM9ryv3xv72pqoxQDRHE-5" target="MV6OpVxTvDD_PxkE7c-I-26" edge="1">
          <mxGeometry relative="1" as="geometry">
            <mxPoint x="60" y="220" as="sourcePoint" />
            <Array as="points">
              <mxPoint x="90" y="250" />
            </Array>
          </mxGeometry>
        </mxCell>
        <mxCell id="MV6OpVxTvDD_PxkE7c-I-31" value="&lt;div&gt;[filterCourses(searchText)]&lt;/div&gt;&lt;div&gt;loadCourseList()&lt;/div&gt;" style="html=1;align=left;spacingLeft=2;endArrow=block;rounded=0;edgeStyle=orthogonalEdgeStyle;curved=0;rounded=0;" parent="aM9ryv3xv72pqoxQDRHE-5" edge="1">
          <mxGeometry relative="1" as="geometry">
            <mxPoint x="55" y="460" as="sourcePoint" />
            <Array as="points">
              <mxPoint x="85" y="490" />
            </Array>
            <mxPoint x="60" y="490" as="targetPoint" />
          </mxGeometry>
        </mxCell>
        <mxCell id="MV6OpVxTvDD_PxkE7c-I-64" value="" style="html=1;points=[[0,0,0,0,5],[0,1,0,0,-5],[1,0,0,0,5],[1,1,0,0,-5]];perimeter=orthogonalPerimeter;outlineConnect=0;targetShapes=umlLifeline;portConstraint=eastwest;newEdgeStyle={&quot;curved&quot;:0,&quot;rounded&quot;:0};" parent="aM9ryv3xv72pqoxQDRHE-5" vertex="1">
          <mxGeometry x="55" y="1040" width="10" height="50" as="geometry" />
        </mxCell>
        <mxCell id="MV6OpVxTvDD_PxkE7c-I-65" value="showAddReviewDialog" style="html=1;align=left;spacingLeft=2;endArrow=block;rounded=0;edgeStyle=orthogonalEdgeStyle;curved=0;rounded=0;" parent="aM9ryv3xv72pqoxQDRHE-5" target="MV6OpVxTvDD_PxkE7c-I-64" edge="1">
          <mxGeometry relative="1" as="geometry">
            <mxPoint x="55" y="1019" as="sourcePoint" />
            <Array as="points">
              <mxPoint x="90" y="1019" />
              <mxPoint x="90" y="1050" />
            </Array>
          </mxGeometry>
        </mxCell>
        <mxCell id="MV6OpVxTvDD_PxkE7c-I-76" value="" style="html=1;points=[[0,0,0,0,5],[0,1,0,0,-5],[1,0,0,0,5],[1,1,0,0,-5]];perimeter=orthogonalPerimeter;outlineConnect=0;targetShapes=umlLifeline;portConstraint=eastwest;newEdgeStyle={&quot;curved&quot;:0,&quot;rounded&quot;:0};" parent="aM9ryv3xv72pqoxQDRHE-5" vertex="1">
          <mxGeometry x="55" y="1211" width="10" height="50" as="geometry" />
        </mxCell>
        <mxCell id="MV6OpVxTvDD_PxkE7c-I-77" value="showRateProfessorDialog" style="html=1;align=left;spacingLeft=2;endArrow=block;rounded=0;edgeStyle=orthogonalEdgeStyle;curved=0;rounded=0;exitX=1.233;exitY=0.73;exitDx=0;exitDy=0;exitPerimeter=0;" parent="aM9ryv3xv72pqoxQDRHE-5" target="MV6OpVxTvDD_PxkE7c-I-76" edge="1">
          <mxGeometry relative="1" as="geometry">
            <mxPoint x="57" y="1190" as="sourcePoint" />
            <Array as="points">
              <mxPoint x="90" y="1190" />
              <mxPoint x="90" y="1221" />
            </Array>
          </mxGeometry>
        </mxCell>
        <mxCell id="MV6OpVxTvDD_PxkE7c-I-90" value="" style="html=1;points=[[0,0,0,0,5],[0,1,0,0,-5],[1,0,0,0,5],[1,1,0,0,-5]];perimeter=orthogonalPerimeter;outlineConnect=0;targetShapes=umlLifeline;portConstraint=eastwest;newEdgeStyle={&quot;curved&quot;:0,&quot;rounded&quot;:0};" parent="aM9ryv3xv72pqoxQDRHE-5" vertex="1">
          <mxGeometry x="55" y="350" width="10" height="20" as="geometry" />
        </mxCell>
        <mxCell id="MV6OpVxTvDD_PxkE7c-I-91" value="semesterMenu(label)" style="html=1;align=left;spacingLeft=2;endArrow=block;rounded=0;edgeStyle=orthogonalEdgeStyle;curved=0;rounded=0;" parent="aM9ryv3xv72pqoxQDRHE-5" target="MV6OpVxTvDD_PxkE7c-I-90" edge="1">
          <mxGeometry relative="1" as="geometry">
            <mxPoint x="60" y="330" as="sourcePoint" />
            <Array as="points">
              <mxPoint x="90" y="360" />
            </Array>
          </mxGeometry>
        </mxCell>
        <mxCell id="aM9ryv3xv72pqoxQDRHE-8" value="return" style="html=1;verticalAlign=bottom;endArrow=open;dashed=1;endSize=8;edgeStyle=elbowEdgeStyle;elbow=vertical;curved=0;rounded=0;" parent="1" edge="1">
          <mxGeometry x="-0.0354" relative="1" as="geometry">
            <mxPoint x="400" y="620" as="targetPoint" />
            <Array as="points">
              <mxPoint x="455.5" y="620" />
            </Array>
            <mxPoint x="620" y="620" as="sourcePoint" />
            <mxPoint as="offset" />
          </mxGeometry>
        </mxCell>
        <mxCell id="aM9ryv3xv72pqoxQDRHE-10" value="return" style="html=1;verticalAlign=bottom;endArrow=open;dashed=1;endSize=8;edgeStyle=elbowEdgeStyle;elbow=vertical;curved=0;rounded=0;" parent="1" edge="1">
          <mxGeometry relative="1" as="geometry">
            <mxPoint x="1555.5" y="190" as="targetPoint" />
            <Array as="points">
              <mxPoint x="1500.5" y="190" />
            </Array>
            <mxPoint x="1400" y="190" as="sourcePoint" />
          </mxGeometry>
        </mxCell>
        <object label="" id="MV6OpVxTvDD_PxkE7c-I-7">
          <mxCell style="shape=umlLifeline;perimeter=lifelinePerimeter;whiteSpace=wrap;html=1;container=1;dropTarget=0;collapsible=0;recursiveResize=0;outlineConnect=0;portConstraint=eastwest;newEdgeStyle={&quot;curved&quot;:0,&quot;rounded&quot;:0};participant=umlActor;" parent="1" vertex="1">
            <mxGeometry x="60" y="90" width="30" height="1470" as="geometry" />
          </mxCell>
        </object>
        <mxCell id="MV6OpVxTvDD_PxkE7c-I-8" value="" style="html=1;points=[[0,0,0,0,5],[0,1,0,0,-5],[1,0,0,0,5],[1,1,0,0,-5]];perimeter=orthogonalPerimeter;outlineConnect=0;targetShapes=umlLifeline;portConstraint=eastwest;newEdgeStyle={&quot;curved&quot;:0,&quot;rounded&quot;:0};" parent="MV6OpVxTvDD_PxkE7c-I-7" vertex="1">
          <mxGeometry x="10" y="70" width="10" height="1360" as="geometry" />
        </mxCell>
        <mxCell id="aM9ryv3xv72pqoxQDRHE-3" value="login" style="html=1;verticalAlign=bottom;startArrow=oval;endArrow=block;startSize=8;edgeStyle=elbowEdgeStyle;elbow=vertical;curved=0;rounded=0;" parent="1" edge="1">
          <mxGeometry relative="1" as="geometry">
            <mxPoint x="80" y="160" as="sourcePoint" />
            <mxPoint x="210.5" y="160" as="targetPoint" />
          </mxGeometry>
        </mxCell>
        <mxCell id="MV6OpVxTvDD_PxkE7c-I-9" value="API" style="shape=umlLifeline;perimeter=lifelinePerimeter;whiteSpace=wrap;html=1;container=0;dropTarget=0;collapsible=0;recursiveResize=0;outlineConnect=0;portConstraint=eastwest;newEdgeStyle={&quot;edgeStyle&quot;:&quot;elbowEdgeStyle&quot;,&quot;elbow&quot;:&quot;vertical&quot;,&quot;curved&quot;:0,&quot;rounded&quot;:0};" parent="1" vertex="1">
          <mxGeometry x="580" y="90" width="100" height="1470" as="geometry" />
        </mxCell>
        <mxCell id="MV6OpVxTvDD_PxkE7c-I-10" value="" style="html=1;points=[];perimeter=orthogonalPerimeter;outlineConnect=0;targetShapes=umlLifeline;portConstraint=eastwest;newEdgeStyle={&quot;edgeStyle&quot;:&quot;elbowEdgeStyle&quot;,&quot;elbow&quot;:&quot;vertical&quot;,&quot;curved&quot;:0,&quot;rounded&quot;:0};" parent="MV6OpVxTvDD_PxkE7c-I-9" vertex="1">
          <mxGeometry x="45" y="80" width="10" height="1350" as="geometry" />
        </mxCell>
        <mxCell id="MV6OpVxTvDD_PxkE7c-I-60" value="" style="html=1;points=[[0,0,0,0,5],[0,1,0,0,-5],[1,0,0,0,5],[1,1,0,0,-5]];perimeter=orthogonalPerimeter;outlineConnect=0;targetShapes=umlLifeline;portConstraint=eastwest;newEdgeStyle={&quot;curved&quot;:0,&quot;rounded&quot;:0};" parent="MV6OpVxTvDD_PxkE7c-I-9" vertex="1">
          <mxGeometry x="-180" y="860" width="10" height="40" as="geometry" />
        </mxCell>
        <mxCell id="MV6OpVxTvDD_PxkE7c-I-61" value="firstSection.setSelected(true)" style="html=1;align=left;spacingLeft=2;endArrow=block;rounded=0;edgeStyle=orthogonalEdgeStyle;curved=0;rounded=0;" parent="MV6OpVxTvDD_PxkE7c-I-9" target="MV6OpVxTvDD_PxkE7c-I-60" edge="1">
          <mxGeometry relative="1" as="geometry">
            <mxPoint x="-175" y="840" as="sourcePoint" />
            <Array as="points">
              <mxPoint x="-145" y="870" />
            </Array>
          </mxGeometry>
        </mxCell>
        <mxCell id="MV6OpVxTvDD_PxkE7c-I-58" value="loadReviews(course)" style="html=1;verticalAlign=bottom;endArrow=block;curved=0;rounded=0;" parent="MV6OpVxTvDD_PxkE7c-I-9" edge="1">
          <mxGeometry width="80" relative="1" as="geometry">
            <mxPoint x="-180" y="910" as="sourcePoint" />
            <mxPoint x="45" y="910" as="targetPoint" />
            <Array as="points">
              <mxPoint x="-60" y="910" />
            </Array>
          </mxGeometry>
        </mxCell>
        <mxCell id="MV6OpVxTvDD_PxkE7c-I-59" value="return" style="html=1;verticalAlign=bottom;endArrow=open;dashed=1;endSize=8;edgeStyle=elbowEdgeStyle;elbow=vertical;curved=0;rounded=0;exitX=0.5;exitY=0.447;exitDx=0;exitDy=0;exitPerimeter=0;entryX=0.5;entryY=0.672;entryDx=0;entryDy=0;entryPerimeter=0;" parent="MV6OpVxTvDD_PxkE7c-I-9" edge="1">
          <mxGeometry x="-0.0354" relative="1" as="geometry">
            <mxPoint x="-180" y="930" as="targetPoint" />
            <Array as="points">
              <mxPoint x="-139.5" y="930" />
            </Array>
            <mxPoint x="35" y="930.0899999999999" as="sourcePoint" />
            <mxPoint as="offset" />
          </mxGeometry>
        </mxCell>
        <mxCell id="MV6OpVxTvDD_PxkE7c-I-62" value="loadSectionDetails(section)" style="html=1;verticalAlign=bottom;endArrow=block;curved=0;rounded=0;" parent="MV6OpVxTvDD_PxkE7c-I-9" edge="1">
          <mxGeometry width="80" relative="1" as="geometry">
            <mxPoint x="-180" y="970" as="sourcePoint" />
            <mxPoint x="49.5" y="970" as="targetPoint" />
          </mxGeometry>
        </mxCell>
        <mxCell id="MV6OpVxTvDD_PxkE7c-I-63" value="return" style="html=1;verticalAlign=bottom;endArrow=open;dashed=1;endSize=8;edgeStyle=elbowEdgeStyle;elbow=vertical;curved=0;rounded=0;exitX=0.5;exitY=0.447;exitDx=0;exitDy=0;exitPerimeter=0;" parent="MV6OpVxTvDD_PxkE7c-I-9" edge="1">
          <mxGeometry x="-0.0354" relative="1" as="geometry">
            <mxPoint x="-175" y="990" as="targetPoint" />
            <Array as="points" />
            <mxPoint x="35" y="990.0899999999999" as="sourcePoint" />
            <mxPoint as="offset" />
          </mxGeometry>
        </mxCell>
        <mxCell id="MV6OpVxTvDD_PxkE7c-I-14" value="" style="shape=umlDestroy;whiteSpace=wrap;html=1;strokeWidth=3;targetShapes=umlLifeline;" parent="1" vertex="1">
          <mxGeometry x="200" y="360" width="30" height="30" as="geometry" />
        </mxCell>
        <mxCell id="MV6OpVxTvDD_PxkE7c-I-12" value="&lt;div&gt;login(password, email)&lt;/div&gt;&lt;div&gt;&lt;br&gt;&lt;/div&gt;" style="html=1;align=left;spacingLeft=2;endArrow=block;rounded=0;edgeStyle=orthogonalEdgeStyle;curved=0;rounded=0;" parent="1" source="aM9ryv3xv72pqoxQDRHE-2" target="MV6OpVxTvDD_PxkE7c-I-9" edge="1">
          <mxGeometry x="-0.2931" relative="1" as="geometry">
            <mxPoint x="210" y="170" as="sourcePoint" />
            <Array as="points">
              <mxPoint x="310" y="170" />
              <mxPoint x="310" y="170" />
            </Array>
            <mxPoint x="215" y="200" as="targetPoint" />
            <mxPoint as="offset" />
          </mxGeometry>
        </mxCell>
        <mxCell id="MV6OpVxTvDD_PxkE7c-I-15" value="return" style="html=1;verticalAlign=bottom;endArrow=open;dashed=1;endSize=8;edgeStyle=elbowEdgeStyle;elbow=vertical;curved=0;rounded=0;" parent="1" source="MV6OpVxTvDD_PxkE7c-I-9" edge="1">
          <mxGeometry x="-0.0896" relative="1" as="geometry">
            <mxPoint x="220" y="190" as="targetPoint" />
            <Array as="points">
              <mxPoint x="455" y="190" />
            </Array>
            <mxPoint x="555" y="190" as="sourcePoint" />
            <mxPoint as="offset" />
          </mxGeometry>
        </mxCell>
        <mxCell id="MV6OpVxTvDD_PxkE7c-I-18" value="load()" style="html=1;verticalAlign=bottom;startArrow=oval;startFill=1;endArrow=block;startSize=8;curved=0;rounded=0;" parent="1" target="aM9ryv3xv72pqoxQDRHE-5" edge="1">
          <mxGeometry width="60" relative="1" as="geometry">
            <mxPoint x="220" y="270" as="sourcePoint" />
            <mxPoint x="280" y="270" as="targetPoint" />
          </mxGeometry>
        </mxCell>
        <mxCell id="MV6OpVxTvDD_PxkE7c-I-28" value="return" style="html=1;verticalAlign=bottom;endArrow=open;dashed=1;endSize=8;edgeStyle=elbowEdgeStyle;elbow=vertical;curved=0;rounded=0;exitX=0.5;exitY=0.447;exitDx=0;exitDy=0;exitPerimeter=0;" parent="1" edge="1">
          <mxGeometry x="-0.0354" relative="1" as="geometry">
            <mxPoint x="415" y="369" as="targetPoint" />
            <Array as="points">
              <mxPoint x="445.5" y="369" />
            </Array>
            <mxPoint x="620" y="369.0899999999999" as="sourcePoint" />
            <mxPoint as="offset" />
          </mxGeometry>
        </mxCell>
        <mxCell id="MV6OpVxTvDD_PxkE7c-I-29" value="search a course" style="html=1;verticalAlign=bottom;startArrow=oval;startFill=1;endArrow=block;startSize=8;curved=0;rounded=0;" parent="1" edge="1">
          <mxGeometry width="60" relative="1" as="geometry">
            <mxPoint x="80" y="550" as="sourcePoint" />
            <mxPoint x="395" y="550" as="targetPoint" />
          </mxGeometry>
        </mxCell>
        <mxCell id="MV6OpVxTvDD_PxkE7c-I-34" value="&lt;div&gt;select a section&lt;/div&gt;" style="html=1;verticalAlign=bottom;startArrow=oval;startFill=1;endArrow=block;startSize=8;curved=0;rounded=0;" parent="1" edge="1">
          <mxGeometry width="60" relative="1" as="geometry">
            <mxPoint x="80" y="1060" as="sourcePoint" />
            <mxPoint x="395" y="1060" as="targetPoint" />
          </mxGeometry>
        </mxCell>
        <mxCell id="MV6OpVxTvDD_PxkE7c-I-35" value="click on a course" style="html=1;verticalAlign=bottom;startArrow=oval;startFill=1;endArrow=block;startSize=8;curved=0;rounded=0;" parent="1" edge="1">
          <mxGeometry width="60" relative="1" as="geometry">
            <mxPoint x="80" y="670" as="sourcePoint" />
            <mxPoint x="395" y="670" as="targetPoint" />
          </mxGeometry>
        </mxCell>
        <mxCell id="MV6OpVxTvDD_PxkE7c-I-36" value="&lt;div&gt;add review&lt;/div&gt;" style="html=1;verticalAlign=bottom;startArrow=oval;startFill=1;endArrow=block;startSize=8;curved=0;rounded=0;" parent="1" edge="1">
          <mxGeometry width="60" relative="1" as="geometry">
            <mxPoint x="80" y="1110" as="sourcePoint" />
            <mxPoint x="395" y="1110" as="targetPoint" />
          </mxGeometry>
        </mxCell>
        <mxCell id="MV6OpVxTvDD_PxkE7c-I-37" value="add rating" style="html=1;verticalAlign=bottom;startArrow=oval;startFill=1;endArrow=block;startSize=8;curved=0;rounded=0;" parent="1" edge="1">
          <mxGeometry width="60" relative="1" as="geometry">
            <mxPoint x="80" y="1280" as="sourcePoint" />
            <mxPoint x="395" y="1280" as="targetPoint" />
          </mxGeometry>
        </mxCell>
        <mxCell id="MV6OpVxTvDD_PxkE7c-I-38" value="Server.Main" style="shape=umlLifeline;perimeter=lifelinePerimeter;whiteSpace=wrap;html=1;container=0;dropTarget=0;collapsible=0;recursiveResize=0;outlineConnect=0;portConstraint=eastwest;newEdgeStyle={&quot;edgeStyle&quot;:&quot;elbowEdgeStyle&quot;,&quot;elbow&quot;:&quot;vertical&quot;,&quot;curved&quot;:0,&quot;rounded&quot;:0};" parent="1" vertex="1">
          <mxGeometry x="780" y="90" width="100" height="1470" as="geometry" />
        </mxCell>
        <mxCell id="MV6OpVxTvDD_PxkE7c-I-39" value="" style="html=1;points=[];perimeter=orthogonalPerimeter;outlineConnect=0;targetShapes=umlLifeline;portConstraint=eastwest;newEdgeStyle={&quot;edgeStyle&quot;:&quot;elbowEdgeStyle&quot;,&quot;elbow&quot;:&quot;vertical&quot;,&quot;curved&quot;:0,&quot;rounded&quot;:0};" parent="MV6OpVxTvDD_PxkE7c-I-38" vertex="1">
          <mxGeometry x="45" y="80" width="10" height="1350" as="geometry" />
        </mxCell>
        <mxCell id="MV6OpVxTvDD_PxkE7c-I-40" value="Server.Database" style="shape=umlLifeline;perimeter=lifelinePerimeter;whiteSpace=wrap;html=1;container=0;dropTarget=0;collapsible=0;recursiveResize=0;outlineConnect=0;portConstraint=eastwest;newEdgeStyle={&quot;edgeStyle&quot;:&quot;elbowEdgeStyle&quot;,&quot;elbow&quot;:&quot;vertical&quot;,&quot;curved&quot;:0,&quot;rounded&quot;:0};" parent="1" vertex="1">
          <mxGeometry x="980" y="90" width="100" height="1470" as="geometry" />
        </mxCell>
        <mxCell id="MV6OpVxTvDD_PxkE7c-I-41" value="" style="html=1;points=[];perimeter=orthogonalPerimeter;outlineConnect=0;targetShapes=umlLifeline;portConstraint=eastwest;newEdgeStyle={&quot;edgeStyle&quot;:&quot;elbowEdgeStyle&quot;,&quot;elbow&quot;:&quot;vertical&quot;,&quot;curved&quot;:0,&quot;rounded&quot;:0};" parent="MV6OpVxTvDD_PxkE7c-I-40" vertex="1">
          <mxGeometry x="45" y="80" width="10" height="1350" as="geometry" />
        </mxCell>
        <mxCell id="MV6OpVxTvDD_PxkE7c-I-43" value="getCourses(selectedSemester:Fall)" style="html=1;verticalAlign=bottom;endArrow=block;curved=0;rounded=0;" parent="1" source="MV6OpVxTvDD_PxkE7c-I-26" edge="1">
          <mxGeometry width="80" relative="1" as="geometry">
            <mxPoint x="420" y="350" as="sourcePoint" />
            <mxPoint x="629.5" y="350" as="targetPoint" />
          </mxGeometry>
        </mxCell>
        <mxCell id="MV6OpVxTvDD_PxkE7c-I-44" value="getCourses(selectedSemester)" style="html=1;verticalAlign=bottom;endArrow=block;curved=0;rounded=0;" parent="1" edge="1">
          <mxGeometry width="80" relative="1" as="geometry">
            <mxPoint x="400" y="600" as="sourcePoint" />
            <mxPoint x="620" y="600" as="targetPoint" />
          </mxGeometry>
        </mxCell>
        <mxCell id="MV6OpVxTvDD_PxkE7c-I-46" value="getCourses(selectedSemester)" style="html=1;verticalAlign=bottom;endArrow=block;curved=0;rounded=0;" parent="1" edge="1">
          <mxGeometry width="80" relative="1" as="geometry">
            <mxPoint x="410" y="670" as="sourcePoint" />
            <mxPoint x="630" y="670" as="targetPoint" />
          </mxGeometry>
        </mxCell>
        <mxCell id="MV6OpVxTvDD_PxkE7c-I-47" value="return" style="html=1;verticalAlign=bottom;endArrow=open;dashed=1;endSize=8;edgeStyle=elbowEdgeStyle;elbow=vertical;curved=0;rounded=0;" parent="1" edge="1">
          <mxGeometry x="0.0455" relative="1" as="geometry">
            <mxPoint x="400" y="690" as="targetPoint" />
            <Array as="points">
              <mxPoint x="435.5" y="690" />
            </Array>
            <mxPoint x="620" y="690" as="sourcePoint" />
            <mxPoint as="offset" />
          </mxGeometry>
        </mxCell>
        <mxCell id="MV6OpVxTvDD_PxkE7c-I-66" value="loadCourseDetails(course)" style="html=1;verticalAlign=bottom;endArrow=block;curved=0;rounded=0;" parent="1" edge="1">
          <mxGeometry width="80" relative="1" as="geometry">
            <mxPoint x="420" y="1150" as="sourcePoint" />
            <mxPoint x="630" y="1150" as="targetPoint" />
            <mxPoint as="offset" />
          </mxGeometry>
        </mxCell>
        <mxCell id="MV6OpVxTvDD_PxkE7c-I-67" value="return" style="html=1;verticalAlign=bottom;endArrow=open;dashed=1;endSize=8;edgeStyle=elbowEdgeStyle;elbow=vertical;curved=0;rounded=0;exitX=0.5;exitY=0.447;exitDx=0;exitDy=0;exitPerimeter=0;" parent="1" target="MV6OpVxTvDD_PxkE7c-I-64" edge="1">
          <mxGeometry x="-0.0354" relative="1" as="geometry">
            <mxPoint x="420" y="1170" as="targetPoint" />
            <Array as="points">
              <mxPoint x="640" y="1170" />
            </Array>
            <mxPoint x="620" y="1170.09" as="sourcePoint" />
            <mxPoint as="offset" />
          </mxGeometry>
        </mxCell>
        <mxCell id="MV6OpVxTvDD_PxkE7c-I-68" value="submitReview(stundentId, rating, reviewText)" style="html=1;verticalAlign=bottom;endArrow=block;curved=0;rounded=0;" parent="1" edge="1">
          <mxGeometry width="80" relative="1" as="geometry">
            <mxPoint x="400" y="1210" as="sourcePoint" />
            <mxPoint x="625" y="1210" as="targetPoint" />
          </mxGeometry>
        </mxCell>
        <mxCell id="MV6OpVxTvDD_PxkE7c-I-69" value="addReview(userObj, CoruseObj, rating, review)" style="html=1;verticalAlign=bottom;endArrow=block;curved=0;rounded=0;fontSize=8;" parent="1" edge="1">
          <mxGeometry x="-0.0526" width="80" relative="1" as="geometry">
            <mxPoint x="640" y="1210" as="sourcePoint" />
            <mxPoint x="830" y="1210" as="targetPoint" />
            <mxPoint as="offset" />
          </mxGeometry>
        </mxCell>
        <mxCell id="MV6OpVxTvDD_PxkE7c-I-73" value="return" style="html=1;verticalAlign=bottom;endArrow=open;dashed=1;endSize=8;edgeStyle=elbowEdgeStyle;elbow=vertical;curved=0;rounded=0;exitX=0.5;exitY=0.447;exitDx=0;exitDy=0;exitPerimeter=0;" parent="1" edge="1">
          <mxGeometry x="0.0306" relative="1" as="geometry">
            <mxPoint x="80" y="1140.0588235294117" as="targetPoint" />
            <Array as="points" />
            <mxPoint x="410" y="1140.09" as="sourcePoint" />
            <mxPoint as="offset" />
          </mxGeometry>
        </mxCell>
        <mxCell id="MV6OpVxTvDD_PxkE7c-I-74" value="loadReviews(course)" style="html=1;verticalAlign=bottom;endArrow=block;curved=0;rounded=0;" parent="1" edge="1">
          <mxGeometry width="80" relative="1" as="geometry">
            <mxPoint x="400" y="1230" as="sourcePoint" />
            <mxPoint x="625" y="1230" as="targetPoint" />
            <Array as="points">
              <mxPoint x="520" y="1230" />
            </Array>
          </mxGeometry>
        </mxCell>
        <mxCell id="MV6OpVxTvDD_PxkE7c-I-75" value="return" style="html=1;verticalAlign=bottom;endArrow=open;dashed=1;endSize=8;edgeStyle=elbowEdgeStyle;elbow=vertical;curved=0;rounded=0;exitX=0.5;exitY=0.447;exitDx=0;exitDy=0;exitPerimeter=0;" parent="1" edge="1">
          <mxGeometry x="-0.0354" relative="1" as="geometry">
            <mxPoint x="405" y="1250" as="targetPoint" />
            <Array as="points">
              <mxPoint x="450.5" y="1250" />
            </Array>
            <mxPoint x="625" y="1250.09" as="sourcePoint" />
            <mxPoint as="offset" />
          </mxGeometry>
        </mxCell>
        <mxCell id="MV6OpVxTvDD_PxkE7c-I-80" value="submitRating(professorId, rating, sectionCode)" style="html=1;verticalAlign=bottom;endArrow=block;curved=0;rounded=0;" parent="1" edge="1">
          <mxGeometry width="80" relative="1" as="geometry">
            <mxPoint x="400" y="1380" as="sourcePoint" />
            <mxPoint x="625" y="1380" as="targetPoint" />
          </mxGeometry>
        </mxCell>
        <mxCell id="MV6OpVxTvDD_PxkE7c-I-81" value="updateProfessorRating(profId, rating)" style="html=1;verticalAlign=bottom;endArrow=block;curved=0;rounded=0;" parent="1" edge="1">
          <mxGeometry width="80" relative="1" as="geometry">
            <mxPoint x="400" y="1410" as="sourcePoint" />
            <mxPoint x="625" y="1410" as="targetPoint" />
            <Array as="points">
              <mxPoint x="520" y="1410" />
            </Array>
          </mxGeometry>
        </mxCell>
        <mxCell id="MV6OpVxTvDD_PxkE7c-I-82" value="return" style="html=1;verticalAlign=bottom;endArrow=open;dashed=1;endSize=8;edgeStyle=elbowEdgeStyle;elbow=vertical;curved=0;rounded=0;exitX=0.5;exitY=0.447;exitDx=0;exitDy=0;exitPerimeter=0;" parent="1" edge="1">
          <mxGeometry x="-0.0354" relative="1" as="geometry">
            <mxPoint x="410" y="1430" as="targetPoint" />
            <Array as="points">
              <mxPoint x="450.5" y="1430" />
            </Array>
            <mxPoint x="625" y="1430.09" as="sourcePoint" />
            <mxPoint as="offset" />
          </mxGeometry>
        </mxCell>
        <mxCell id="MV6OpVxTvDD_PxkE7c-I-50" value="" style="html=1;points=[[0,0,0,0,5],[0,1,0,0,-5],[1,0,0,0,5],[1,1,0,0,-5]];perimeter=orthogonalPerimeter;outlineConnect=0;targetShapes=umlLifeline;portConstraint=eastwest;newEdgeStyle={&quot;curved&quot;:0,&quot;rounded&quot;:0};" parent="1" vertex="1">
          <mxGeometry x="400" y="790" width="10" height="60" as="geometry" />
        </mxCell>
        <mxCell id="MV6OpVxTvDD_PxkE7c-I-51" value="&lt;div&gt;loadAvailableSections(course)&lt;/div&gt;" style="html=1;align=left;spacingLeft=2;endArrow=block;rounded=0;edgeStyle=orthogonalEdgeStyle;curved=0;rounded=0;" parent="1" target="MV6OpVxTvDD_PxkE7c-I-50" edge="1">
          <mxGeometry relative="1" as="geometry">
            <mxPoint x="405" y="770" as="sourcePoint" />
            <Array as="points">
              <mxPoint x="435" y="800" />
            </Array>
          </mxGeometry>
        </mxCell>
        <mxCell id="MV6OpVxTvDD_PxkE7c-I-53" value="loadSectionDetails(section)" style="html=1;verticalAlign=bottom;endArrow=block;curved=0;rounded=0;" parent="1" source="MV6OpVxTvDD_PxkE7c-I-50" edge="1">
          <mxGeometry width="80" relative="1" as="geometry">
            <mxPoint x="405" y="820" as="sourcePoint" />
            <mxPoint x="629.5" y="820" as="targetPoint" />
          </mxGeometry>
        </mxCell>
        <mxCell id="MV6OpVxTvDD_PxkE7c-I-54" value="return" style="html=1;verticalAlign=bottom;endArrow=open;dashed=1;endSize=8;edgeStyle=elbowEdgeStyle;elbow=vertical;curved=0;rounded=0;exitX=0.5;exitY=0.447;exitDx=0;exitDy=0;exitPerimeter=0;" parent="1" edge="1">
          <mxGeometry x="-0.0354" relative="1" as="geometry">
            <mxPoint x="410" y="840" as="targetPoint" />
            <Array as="points">
              <mxPoint x="440.5" y="840" />
            </Array>
            <mxPoint x="615" y="840.0899999999999" as="sourcePoint" />
            <mxPoint as="offset" />
          </mxGeometry>
        </mxCell>
        <mxCell id="MV6OpVxTvDD_PxkE7c-I-85" value="return" style="html=1;verticalAlign=bottom;endArrow=open;dashed=1;endSize=8;edgeStyle=elbowEdgeStyle;elbow=vertical;curved=0;rounded=0;exitX=0.5;exitY=0.447;exitDx=0;exitDy=0;exitPerimeter=0;" parent="1" edge="1">
          <mxGeometry x="0.0306" relative="1" as="geometry">
            <mxPoint x="80" y="1310" as="targetPoint" />
            <Array as="points" />
            <mxPoint x="410" y="1310.09" as="sourcePoint" />
            <mxPoint as="offset" />
          </mxGeometry>
        </mxCell>
        <mxCell id="MV6OpVxTvDD_PxkE7c-I-86" value="enter review" style="html=1;verticalAlign=bottom;startArrow=oval;startFill=1;endArrow=block;startSize=8;curved=0;rounded=0;" parent="1" edge="1">
          <mxGeometry width="60" relative="1" as="geometry">
            <mxPoint x="85" y="1210" as="sourcePoint" />
            <mxPoint x="400" y="1210" as="targetPoint" />
          </mxGeometry>
        </mxCell>
        <mxCell id="MV6OpVxTvDD_PxkE7c-I-87" value="&lt;div&gt;enter rating&lt;/div&gt;" style="html=1;verticalAlign=bottom;startArrow=oval;startFill=1;endArrow=block;startSize=8;curved=0;rounded=0;" parent="1" edge="1">
          <mxGeometry width="60" relative="1" as="geometry">
            <mxPoint x="85" y="1380" as="sourcePoint" />
            <mxPoint x="400" y="1380" as="targetPoint" />
          </mxGeometry>
        </mxCell>
        <mxCell id="MV6OpVxTvDD_PxkE7c-I-88" value="select a term" style="html=1;verticalAlign=bottom;startArrow=oval;startFill=1;endArrow=block;startSize=8;curved=0;rounded=0;" parent="1" edge="1">
          <mxGeometry width="60" relative="1" as="geometry">
            <mxPoint x="80" y="420" as="sourcePoint" />
            <mxPoint x="395" y="420" as="targetPoint" />
          </mxGeometry>
        </mxCell>
        <mxCell id="MV6OpVxTvDD_PxkE7c-I-92" value="getCourses(selectedSemester)" style="html=1;verticalAlign=bottom;endArrow=block;curved=0;rounded=0;" parent="1" edge="1">
          <mxGeometry width="80" relative="1" as="geometry">
            <mxPoint x="400" y="480" as="sourcePoint" />
            <mxPoint x="620" y="480" as="targetPoint" />
          </mxGeometry>
        </mxCell>
        <mxCell id="MV6OpVxTvDD_PxkE7c-I-93" value="return" style="html=1;verticalAlign=bottom;endArrow=open;dashed=1;endSize=8;edgeStyle=elbowEdgeStyle;elbow=vertical;curved=0;rounded=0;" parent="1" edge="1">
          <mxGeometry x="-0.0354" relative="1" as="geometry">
            <mxPoint x="400" y="500" as="targetPoint" />
            <Array as="points">
              <mxPoint x="455.5" y="500" />
            </Array>
            <mxPoint x="620" y="500" as="sourcePoint" />
            <mxPoint as="offset" />
          </mxGeometry>
        </mxCell>
        <mxCell id="MV6OpVxTvDD_PxkE7c-I-94" value="addRating(professorObj, UserObj, rating)" style="html=1;verticalAlign=bottom;endArrow=block;curved=0;rounded=0;fontSize=9;" parent="1" edge="1">
          <mxGeometry width="80" relative="1" as="geometry">
            <mxPoint x="640" y="1380" as="sourcePoint" />
            <mxPoint x="830" y="1380" as="targetPoint" />
            <mxPoint as="offset" />
          </mxGeometry>
        </mxCell>
        <mxCell id="MV6OpVxTvDD_PxkE7c-I-96" value="GetCredentials(email)" style="html=1;verticalAlign=bottom;endArrow=block;curved=0;rounded=0;entryX=0.5;entryY=0;entryDx=0;entryDy=0;entryPerimeter=0;" parent="1" target="MV6OpVxTvDD_PxkE7c-I-39" edge="1">
          <mxGeometry width="80" relative="1" as="geometry">
            <mxPoint x="630" y="170" as="sourcePoint" />
            <mxPoint x="820" y="170" as="targetPoint" />
          </mxGeometry>
        </mxCell>
        <mxCell id="MV6OpVxTvDD_PxkE7c-I-97" value="fetchLogin(email)" style="html=1;verticalAlign=bottom;endArrow=block;curved=0;rounded=0;entryX=0.5;entryY=0;entryDx=0;entryDy=0;entryPerimeter=0;" parent="1" edge="1">
          <mxGeometry width="80" relative="1" as="geometry">
            <mxPoint x="830" y="170" as="sourcePoint" />
            <mxPoint x="1030" y="170" as="targetPoint" />
          </mxGeometry>
        </mxCell>
        <mxCell id="MV6OpVxTvDD_PxkE7c-I-98" value="return" style="html=1;verticalAlign=bottom;endArrow=open;dashed=1;endSize=8;edgeStyle=elbowEdgeStyle;elbow=vertical;curved=0;rounded=0;exitX=0.5;exitY=0.447;exitDx=0;exitDy=0;exitPerimeter=0;entryX=0.5;entryY=0.015;entryDx=0;entryDy=0;entryPerimeter=0;" parent="1" target="MV6OpVxTvDD_PxkE7c-I-39" edge="1">
          <mxGeometry x="-0.0354" relative="1" as="geometry">
            <mxPoint x="840" y="190" as="targetPoint" />
            <Array as="points">
              <mxPoint x="850.5" y="190" />
            </Array>
            <mxPoint x="1025" y="190.08999999999992" as="sourcePoint" />
            <mxPoint as="offset" />
          </mxGeometry>
        </mxCell>
        <mxCell id="MV6OpVxTvDD_PxkE7c-I-99" value="return" style="html=1;verticalAlign=bottom;endArrow=open;dashed=1;endSize=8;edgeStyle=elbowEdgeStyle;elbow=vertical;curved=0;rounded=0;exitX=0.5;exitY=0.447;exitDx=0;exitDy=0;exitPerimeter=0;entryX=0.5;entryY=0.015;entryDx=0;entryDy=0;entryPerimeter=0;" parent="1" edge="1">
          <mxGeometry x="-0.0354" relative="1" as="geometry">
            <mxPoint x="630" y="190" as="targetPoint" />
            <Array as="points">
              <mxPoint x="650.5" y="190" />
            </Array>
            <mxPoint x="825" y="190.08999999999992" as="sourcePoint" />
            <mxPoint as="offset" />
          </mxGeometry>
        </mxCell>
        <mxCell id="MV6OpVxTvDD_PxkE7c-I-100" value="&lt;div&gt;getCourses(semester)&lt;/div&gt;" style="html=1;verticalAlign=bottom;endArrow=block;curved=0;rounded=0;entryX=0.5;entryY=0;entryDx=0;entryDy=0;entryPerimeter=0;" parent="1" edge="1">
          <mxGeometry width="80" relative="1" as="geometry">
            <mxPoint x="630" y="350" as="sourcePoint" />
            <mxPoint x="830" y="350" as="targetPoint" />
          </mxGeometry>
        </mxCell>
        <mxCell id="MV6OpVxTvDD_PxkE7c-I-101" value="fetchCourses(semester)" style="html=1;verticalAlign=bottom;endArrow=block;curved=0;rounded=0;entryX=0.5;entryY=0;entryDx=0;entryDy=0;entryPerimeter=0;" parent="1" edge="1">
          <mxGeometry width="80" relative="1" as="geometry">
            <mxPoint x="830" y="350" as="sourcePoint" />
            <mxPoint x="1030" y="350" as="targetPoint" />
          </mxGeometry>
        </mxCell>
        <mxCell id="MV6OpVxTvDD_PxkE7c-I-102" value="return" style="html=1;verticalAlign=bottom;endArrow=open;dashed=1;endSize=8;edgeStyle=elbowEdgeStyle;elbow=vertical;curved=0;rounded=0;exitX=0.5;exitY=0.447;exitDx=0;exitDy=0;exitPerimeter=0;entryX=0.5;entryY=0.015;entryDx=0;entryDy=0;entryPerimeter=0;" parent="1" edge="1">
          <mxGeometry x="-0.0354" relative="1" as="geometry">
            <mxPoint x="630" y="370" as="targetPoint" />
            <Array as="points">
              <mxPoint x="650.5" y="370" />
            </Array>
            <mxPoint x="825" y="370.0899999999999" as="sourcePoint" />
            <mxPoint as="offset" />
          </mxGeometry>
        </mxCell>
        <mxCell id="MV6OpVxTvDD_PxkE7c-I-103" value="return" style="html=1;verticalAlign=bottom;endArrow=open;dashed=1;endSize=8;edgeStyle=elbowEdgeStyle;elbow=vertical;curved=0;rounded=0;exitX=0.5;exitY=0.447;exitDx=0;exitDy=0;exitPerimeter=0;entryX=0.5;entryY=0.015;entryDx=0;entryDy=0;entryPerimeter=0;" parent="1" edge="1">
          <mxGeometry x="-0.0354" relative="1" as="geometry">
            <mxPoint x="830" y="370" as="targetPoint" />
            <Array as="points">
              <mxPoint x="850.5" y="370" />
            </Array>
            <mxPoint x="1025" y="370.0899999999999" as="sourcePoint" />
            <mxPoint as="offset" />
          </mxGeometry>
        </mxCell>
        <mxCell id="MV6OpVxTvDD_PxkE7c-I-104" value="get(Courses(semester)" style="html=1;verticalAlign=bottom;endArrow=block;curved=0;rounded=0;entryX=0.5;entryY=0;entryDx=0;entryDy=0;entryPerimeter=0;" parent="1" edge="1">
          <mxGeometry width="80" relative="1" as="geometry">
            <mxPoint x="630" y="480" as="sourcePoint" />
            <mxPoint x="830" y="480" as="targetPoint" />
          </mxGeometry>
        </mxCell>
        <mxCell id="MV6OpVxTvDD_PxkE7c-I-105" value="fetchCourses(semester)" style="html=1;verticalAlign=bottom;endArrow=block;curved=0;rounded=0;entryX=0.5;entryY=0;entryDx=0;entryDy=0;entryPerimeter=0;" parent="1" edge="1">
          <mxGeometry width="80" relative="1" as="geometry">
            <mxPoint x="830" y="480" as="sourcePoint" />
            <mxPoint x="1030" y="480" as="targetPoint" />
          </mxGeometry>
        </mxCell>
        <mxCell id="MV6OpVxTvDD_PxkE7c-I-106" value="return" style="html=1;verticalAlign=bottom;endArrow=open;dashed=1;endSize=8;edgeStyle=elbowEdgeStyle;elbow=vertical;curved=0;rounded=0;exitX=0.5;exitY=0.447;exitDx=0;exitDy=0;exitPerimeter=0;entryX=0.5;entryY=0.015;entryDx=0;entryDy=0;entryPerimeter=0;" parent="1" edge="1">
          <mxGeometry x="-0.0354" relative="1" as="geometry">
            <mxPoint x="630" y="500" as="targetPoint" />
            <Array as="points">
              <mxPoint x="650.5" y="500" />
            </Array>
            <mxPoint x="825" y="500.0899999999999" as="sourcePoint" />
            <mxPoint as="offset" />
          </mxGeometry>
        </mxCell>
        <mxCell id="MV6OpVxTvDD_PxkE7c-I-107" value="return" style="html=1;verticalAlign=bottom;endArrow=open;dashed=1;endSize=8;edgeStyle=elbowEdgeStyle;elbow=vertical;curved=0;rounded=0;exitX=0.5;exitY=0.447;exitDx=0;exitDy=0;exitPerimeter=0;entryX=0.5;entryY=0.015;entryDx=0;entryDy=0;entryPerimeter=0;" parent="1" edge="1">
          <mxGeometry x="-0.0354" relative="1" as="geometry">
            <mxPoint x="830" y="500" as="targetPoint" />
            <Array as="points">
              <mxPoint x="850.5" y="500" />
            </Array>
            <mxPoint x="1025" y="500.0899999999999" as="sourcePoint" />
            <mxPoint as="offset" />
          </mxGeometry>
        </mxCell>
        <mxCell id="MV6OpVxTvDD_PxkE7c-I-108" value="get(Courses(semester)" style="html=1;verticalAlign=bottom;endArrow=block;curved=0;rounded=0;entryX=0.5;entryY=0;entryDx=0;entryDy=0;entryPerimeter=0;" parent="1" edge="1">
          <mxGeometry width="80" relative="1" as="geometry">
            <mxPoint x="630" y="600" as="sourcePoint" />
            <mxPoint x="830" y="600" as="targetPoint" />
          </mxGeometry>
        </mxCell>
        <mxCell id="MV6OpVxTvDD_PxkE7c-I-109" value="fetchCourses(semester)" style="html=1;verticalAlign=bottom;endArrow=block;curved=0;rounded=0;entryX=0.5;entryY=0;entryDx=0;entryDy=0;entryPerimeter=0;" parent="1" edge="1">
          <mxGeometry width="80" relative="1" as="geometry">
            <mxPoint x="830" y="600" as="sourcePoint" />
            <mxPoint x="1030" y="600" as="targetPoint" />
          </mxGeometry>
        </mxCell>
        <mxCell id="MV6OpVxTvDD_PxkE7c-I-110" value="return" style="html=1;verticalAlign=bottom;endArrow=open;dashed=1;endSize=8;edgeStyle=elbowEdgeStyle;elbow=vertical;curved=0;rounded=0;exitX=0.5;exitY=0.447;exitDx=0;exitDy=0;exitPerimeter=0;entryX=0.5;entryY=0.015;entryDx=0;entryDy=0;entryPerimeter=0;" parent="1" edge="1">
          <mxGeometry x="-0.0354" relative="1" as="geometry">
            <mxPoint x="630" y="620" as="targetPoint" />
            <Array as="points">
              <mxPoint x="650.5" y="620" />
            </Array>
            <mxPoint x="825" y="620.0899999999999" as="sourcePoint" />
            <mxPoint as="offset" />
          </mxGeometry>
        </mxCell>
        <mxCell id="MV6OpVxTvDD_PxkE7c-I-111" value="return" style="html=1;verticalAlign=bottom;endArrow=open;dashed=1;endSize=8;edgeStyle=elbowEdgeStyle;elbow=vertical;curved=0;rounded=0;exitX=0.5;exitY=0.447;exitDx=0;exitDy=0;exitPerimeter=0;entryX=0.5;entryY=0.015;entryDx=0;entryDy=0;entryPerimeter=0;" parent="1" edge="1">
          <mxGeometry x="-0.0354" relative="1" as="geometry">
            <mxPoint x="830" y="620" as="targetPoint" />
            <Array as="points">
              <mxPoint x="850.5" y="620" />
            </Array>
            <mxPoint x="1025" y="620.0899999999999" as="sourcePoint" />
            <mxPoint as="offset" />
          </mxGeometry>
        </mxCell>
        <mxCell id="MV6OpVxTvDD_PxkE7c-I-112" value="get(Courses(semester)" style="html=1;verticalAlign=bottom;endArrow=block;curved=0;rounded=0;entryX=0.5;entryY=0;entryDx=0;entryDy=0;entryPerimeter=0;" parent="1" edge="1">
          <mxGeometry width="80" relative="1" as="geometry">
            <mxPoint x="630" y="670" as="sourcePoint" />
            <mxPoint x="830" y="670" as="targetPoint" />
            <mxPoint as="offset" />
          </mxGeometry>
        </mxCell>
        <mxCell id="MV6OpVxTvDD_PxkE7c-I-113" value="fetchCourses(semester)" style="html=1;verticalAlign=bottom;endArrow=block;curved=0;rounded=0;entryX=0.5;entryY=0;entryDx=0;entryDy=0;entryPerimeter=0;" parent="1" edge="1">
          <mxGeometry width="80" relative="1" as="geometry">
            <mxPoint x="830" y="670" as="sourcePoint" />
            <mxPoint x="1030" y="670" as="targetPoint" />
            <mxPoint as="offset" />
          </mxGeometry>
        </mxCell>
        <mxCell id="MV6OpVxTvDD_PxkE7c-I-114" value="return" style="html=1;verticalAlign=bottom;endArrow=open;dashed=1;endSize=8;edgeStyle=elbowEdgeStyle;elbow=vertical;curved=0;rounded=0;exitX=0.5;exitY=0.447;exitDx=0;exitDy=0;exitPerimeter=0;entryX=0.5;entryY=0.015;entryDx=0;entryDy=0;entryPerimeter=0;" parent="1" edge="1">
          <mxGeometry x="-0.0354" relative="1" as="geometry">
            <mxPoint x="630" y="690" as="targetPoint" />
            <Array as="points">
              <mxPoint x="650.5" y="690" />
            </Array>
            <mxPoint x="825" y="690.0899999999999" as="sourcePoint" />
            <mxPoint as="offset" />
          </mxGeometry>
        </mxCell>
        <mxCell id="MV6OpVxTvDD_PxkE7c-I-115" value="return" style="html=1;verticalAlign=bottom;endArrow=open;dashed=1;endSize=8;edgeStyle=elbowEdgeStyle;elbow=vertical;curved=0;rounded=0;exitX=0.5;exitY=0.447;exitDx=0;exitDy=0;exitPerimeter=0;entryX=0.5;entryY=0.015;entryDx=0;entryDy=0;entryPerimeter=0;" parent="1" edge="1">
          <mxGeometry x="-0.0354" relative="1" as="geometry">
            <mxPoint x="830" y="690" as="targetPoint" />
            <Array as="points">
              <mxPoint x="850.5" y="690" />
            </Array>
            <mxPoint x="1025" y="690.0899999999999" as="sourcePoint" />
            <mxPoint as="offset" />
          </mxGeometry>
        </mxCell>
        <mxCell id="MV6OpVxTvDD_PxkE7c-I-120" value="getSections(courseId, semester)" style="html=1;verticalAlign=bottom;endArrow=block;curved=0;rounded=0;entryX=0.5;entryY=0;entryDx=0;entryDy=0;entryPerimeter=0;" parent="1" edge="1">
          <mxGeometry width="80" relative="1" as="geometry">
            <mxPoint x="630" y="820" as="sourcePoint" />
            <mxPoint x="830" y="820" as="targetPoint" />
          </mxGeometry>
        </mxCell>
        <mxCell id="MV6OpVxTvDD_PxkE7c-I-121" value="fetchSections(coruseId, semester)" style="html=1;verticalAlign=bottom;endArrow=block;curved=0;rounded=0;entryX=0.5;entryY=0;entryDx=0;entryDy=0;entryPerimeter=0;" parent="1" edge="1">
          <mxGeometry width="80" relative="1" as="geometry">
            <mxPoint x="830" y="820" as="sourcePoint" />
            <mxPoint x="1030" y="820" as="targetPoint" />
          </mxGeometry>
        </mxCell>
        <mxCell id="MV6OpVxTvDD_PxkE7c-I-122" value="return" style="html=1;verticalAlign=bottom;endArrow=open;dashed=1;endSize=8;edgeStyle=elbowEdgeStyle;elbow=vertical;curved=0;rounded=0;exitX=0.5;exitY=0.447;exitDx=0;exitDy=0;exitPerimeter=0;entryX=0.5;entryY=0.015;entryDx=0;entryDy=0;entryPerimeter=0;" parent="1" edge="1">
          <mxGeometry x="-0.0354" relative="1" as="geometry">
            <mxPoint x="630" y="840" as="targetPoint" />
            <Array as="points">
              <mxPoint x="650.5" y="840" />
            </Array>
            <mxPoint x="825" y="840.0899999999999" as="sourcePoint" />
            <mxPoint as="offset" />
          </mxGeometry>
        </mxCell>
        <mxCell id="MV6OpVxTvDD_PxkE7c-I-123" value="return" style="html=1;verticalAlign=bottom;endArrow=open;dashed=1;endSize=8;edgeStyle=elbowEdgeStyle;elbow=vertical;curved=0;rounded=0;exitX=0.5;exitY=0.447;exitDx=0;exitDy=0;exitPerimeter=0;entryX=0.5;entryY=0.015;entryDx=0;entryDy=0;entryPerimeter=0;" parent="1" edge="1">
          <mxGeometry x="-0.0354" relative="1" as="geometry">
            <mxPoint x="830" y="840" as="targetPoint" />
            <Array as="points">
              <mxPoint x="850.5" y="840" />
            </Array>
            <mxPoint x="1025" y="840.0899999999999" as="sourcePoint" />
            <mxPoint as="offset" />
          </mxGeometry>
        </mxCell>
        <mxCell id="MV6OpVxTvDD_PxkE7c-I-128" value="getReviews(course)" style="html=1;verticalAlign=bottom;endArrow=block;curved=0;rounded=0;entryX=0.5;entryY=0;entryDx=0;entryDy=0;entryPerimeter=0;" parent="1" edge="1">
          <mxGeometry width="80" relative="1" as="geometry">
            <mxPoint x="630" y="1000" as="sourcePoint" />
            <mxPoint x="830" y="1000" as="targetPoint" />
          </mxGeometry>
        </mxCell>
        <mxCell id="MV6OpVxTvDD_PxkE7c-I-129" value="fetchReviews(courseId)" style="html=1;verticalAlign=bottom;endArrow=block;curved=0;rounded=0;entryX=0.5;entryY=0;entryDx=0;entryDy=0;entryPerimeter=0;" parent="1" edge="1">
          <mxGeometry width="80" relative="1" as="geometry">
            <mxPoint x="830" y="1000" as="sourcePoint" />
            <mxPoint x="1030" y="1000" as="targetPoint" />
          </mxGeometry>
        </mxCell>
        <mxCell id="MV6OpVxTvDD_PxkE7c-I-130" value="return" style="html=1;verticalAlign=bottom;endArrow=open;dashed=1;endSize=8;edgeStyle=elbowEdgeStyle;elbow=vertical;curved=0;rounded=0;exitX=0.5;exitY=0.447;exitDx=0;exitDy=0;exitPerimeter=0;entryX=0.5;entryY=0.015;entryDx=0;entryDy=0;entryPerimeter=0;" parent="1" edge="1">
          <mxGeometry x="-0.0354" relative="1" as="geometry">
            <mxPoint x="630" y="1020" as="targetPoint" />
            <Array as="points">
              <mxPoint x="650.5" y="1020" />
            </Array>
            <mxPoint x="825" y="1020.0899999999999" as="sourcePoint" />
            <mxPoint as="offset" />
          </mxGeometry>
        </mxCell>
        <mxCell id="MV6OpVxTvDD_PxkE7c-I-131" value="return" style="html=1;verticalAlign=bottom;endArrow=open;dashed=1;endSize=8;edgeStyle=elbowEdgeStyle;elbow=vertical;curved=0;rounded=0;exitX=0.5;exitY=0.447;exitDx=0;exitDy=0;exitPerimeter=0;entryX=0.5;entryY=0.015;entryDx=0;entryDy=0;entryPerimeter=0;" parent="1" edge="1">
          <mxGeometry x="-0.0354" relative="1" as="geometry">
            <mxPoint x="830" y="1020" as="targetPoint" />
            <Array as="points">
              <mxPoint x="850.5" y="1020" />
            </Array>
            <mxPoint x="1025" y="1020.0899999999999" as="sourcePoint" />
            <mxPoint as="offset" />
          </mxGeometry>
        </mxCell>
        <mxCell id="MV6OpVxTvDD_PxkE7c-I-132" value="getSections(courseId, semester)" style="html=1;verticalAlign=bottom;endArrow=block;curved=0;rounded=0;entryX=0.5;entryY=0;entryDx=0;entryDy=0;entryPerimeter=0;" parent="1" edge="1">
          <mxGeometry width="80" relative="1" as="geometry">
            <mxPoint x="630" y="1060" as="sourcePoint" />
            <mxPoint x="830" y="1060" as="targetPoint" />
          </mxGeometry>
        </mxCell>
        <mxCell id="MV6OpVxTvDD_PxkE7c-I-133" value="fetchSections(coruseId, semester)" style="html=1;verticalAlign=bottom;endArrow=block;curved=0;rounded=0;entryX=0.5;entryY=0;entryDx=0;entryDy=0;entryPerimeter=0;" parent="1" edge="1">
          <mxGeometry width="80" relative="1" as="geometry">
            <mxPoint x="830" y="1060" as="sourcePoint" />
            <mxPoint x="1030" y="1060" as="targetPoint" />
          </mxGeometry>
        </mxCell>
        <mxCell id="MV6OpVxTvDD_PxkE7c-I-134" value="return" style="html=1;verticalAlign=bottom;endArrow=open;dashed=1;endSize=8;edgeStyle=elbowEdgeStyle;elbow=vertical;curved=0;rounded=0;exitX=0.5;exitY=0.447;exitDx=0;exitDy=0;exitPerimeter=0;entryX=0.5;entryY=0.015;entryDx=0;entryDy=0;entryPerimeter=0;" parent="1" edge="1">
          <mxGeometry x="-0.0354" relative="1" as="geometry">
            <mxPoint x="630" y="1080" as="targetPoint" />
            <Array as="points">
              <mxPoint x="650.5" y="1080" />
            </Array>
            <mxPoint x="825" y="1080.09" as="sourcePoint" />
            <mxPoint as="offset" />
          </mxGeometry>
        </mxCell>
        <mxCell id="MV6OpVxTvDD_PxkE7c-I-135" value="return" style="html=1;verticalAlign=bottom;endArrow=open;dashed=1;endSize=8;edgeStyle=elbowEdgeStyle;elbow=vertical;curved=0;rounded=0;exitX=0.5;exitY=0.447;exitDx=0;exitDy=0;exitPerimeter=0;entryX=0.5;entryY=0.015;entryDx=0;entryDy=0;entryPerimeter=0;" parent="1" edge="1">
          <mxGeometry x="-0.0354" relative="1" as="geometry">
            <mxPoint x="830" y="1080" as="targetPoint" />
            <Array as="points">
              <mxPoint x="850.5" y="1080" />
            </Array>
            <mxPoint x="1025" y="1080.09" as="sourcePoint" />
            <mxPoint as="offset" />
          </mxGeometry>
        </mxCell>
        <mxCell id="MV6OpVxTvDD_PxkE7c-I-136" value="getCourse(courseId)" style="html=1;verticalAlign=bottom;endArrow=block;curved=0;rounded=0;entryX=0.5;entryY=0;entryDx=0;entryDy=0;entryPerimeter=0;" parent="1" edge="1">
          <mxGeometry width="80" relative="1" as="geometry">
            <mxPoint x="630" y="1150" as="sourcePoint" />
            <mxPoint x="830" y="1150" as="targetPoint" />
          </mxGeometry>
        </mxCell>
        <mxCell id="MV6OpVxTvDD_PxkE7c-I-137" value="fetchCourse(courseId)" style="html=1;verticalAlign=bottom;endArrow=block;curved=0;rounded=0;entryX=0.5;entryY=0;entryDx=0;entryDy=0;entryPerimeter=0;" parent="1" edge="1">
          <mxGeometry width="80" relative="1" as="geometry">
            <mxPoint x="830" y="1150" as="sourcePoint" />
            <mxPoint x="1030" y="1150" as="targetPoint" />
          </mxGeometry>
        </mxCell>
        <mxCell id="MV6OpVxTvDD_PxkE7c-I-138" value="return" style="html=1;verticalAlign=bottom;endArrow=open;dashed=1;endSize=8;edgeStyle=elbowEdgeStyle;elbow=vertical;curved=0;rounded=0;exitX=0.5;exitY=0.447;exitDx=0;exitDy=0;exitPerimeter=0;entryX=0.5;entryY=0.015;entryDx=0;entryDy=0;entryPerimeter=0;" parent="1" edge="1">
          <mxGeometry x="-0.0354" relative="1" as="geometry">
            <mxPoint x="630" y="1170" as="targetPoint" />
            <Array as="points">
              <mxPoint x="650.5" y="1170" />
            </Array>
            <mxPoint x="825" y="1170.09" as="sourcePoint" />
            <mxPoint as="offset" />
          </mxGeometry>
        </mxCell>
        <mxCell id="MV6OpVxTvDD_PxkE7c-I-139" value="return" style="html=1;verticalAlign=bottom;endArrow=open;dashed=1;endSize=8;edgeStyle=elbowEdgeStyle;elbow=vertical;curved=0;rounded=0;exitX=0.5;exitY=0.447;exitDx=0;exitDy=0;exitPerimeter=0;entryX=0.5;entryY=0.015;entryDx=0;entryDy=0;entryPerimeter=0;" parent="1" edge="1">
          <mxGeometry x="-0.0354" relative="1" as="geometry">
            <mxPoint x="830" y="1170" as="targetPoint" />
            <Array as="points">
              <mxPoint x="850.5" y="1170" />
            </Array>
            <mxPoint x="1025" y="1170.09" as="sourcePoint" />
            <mxPoint as="offset" />
          </mxGeometry>
        </mxCell>
        <mxCell id="MV6OpVxTvDD_PxkE7c-I-140" value="insertReview(JsonObject)" style="html=1;verticalAlign=bottom;endArrow=block;curved=0;rounded=0;entryX=0.5;entryY=0;entryDx=0;entryDy=0;entryPerimeter=0;" parent="1" edge="1">
          <mxGeometry width="80" relative="1" as="geometry">
            <mxPoint x="830" y="1210" as="sourcePoint" />
            <mxPoint x="1030" y="1210" as="targetPoint" />
          </mxGeometry>
        </mxCell>
        <mxCell id="MV6OpVxTvDD_PxkE7c-I-141" value="return" style="html=1;verticalAlign=bottom;endArrow=open;dashed=1;endSize=8;edgeStyle=elbowEdgeStyle;elbow=vertical;curved=0;rounded=0;exitX=0.5;exitY=0.447;exitDx=0;exitDy=0;exitPerimeter=0;entryX=0.5;entryY=0.015;entryDx=0;entryDy=0;entryPerimeter=0;" parent="1" edge="1">
          <mxGeometry x="-0.0354" relative="1" as="geometry">
            <mxPoint x="830" y="1250" as="targetPoint" />
            <Array as="points">
              <mxPoint x="850.5" y="1250" />
            </Array>
            <mxPoint x="1025" y="1250.09" as="sourcePoint" />
            <mxPoint as="offset" />
          </mxGeometry>
        </mxCell>
        <mxCell id="MV6OpVxTvDD_PxkE7c-I-142" value="return" style="html=1;verticalAlign=bottom;endArrow=open;dashed=1;endSize=8;edgeStyle=elbowEdgeStyle;elbow=vertical;curved=0;rounded=0;exitX=0.5;exitY=0.447;exitDx=0;exitDy=0;exitPerimeter=0;entryX=0.5;entryY=0.015;entryDx=0;entryDy=0;entryPerimeter=0;" parent="1" edge="1">
          <mxGeometry x="-0.0354" relative="1" as="geometry">
            <mxPoint x="630" y="1250" as="targetPoint" />
            <Array as="points">
              <mxPoint x="650.5" y="1250" />
            </Array>
            <mxPoint x="825" y="1250.09" as="sourcePoint" />
            <mxPoint as="offset" />
          </mxGeometry>
        </mxCell>
        <mxCell id="MV6OpVxTvDD_PxkE7c-I-143" value="insert method" style="html=1;verticalAlign=bottom;endArrow=block;curved=0;rounded=0;entryX=0.5;entryY=0;entryDx=0;entryDy=0;entryPerimeter=0;" parent="1" edge="1">
          <mxGeometry width="80" relative="1" as="geometry">
            <mxPoint x="630" y="1230" as="sourcePoint" />
            <mxPoint x="830" y="1230" as="targetPoint" />
          </mxGeometry>
        </mxCell>
        <mxCell id="MV6OpVxTvDD_PxkE7c-I-144" value="insert method" style="html=1;verticalAlign=bottom;endArrow=block;curved=0;rounded=0;entryX=0.5;entryY=0;entryDx=0;entryDy=0;entryPerimeter=0;" parent="1" edge="1">
          <mxGeometry width="80" relative="1" as="geometry">
            <mxPoint x="830" y="1230" as="sourcePoint" />
            <mxPoint x="1030" y="1230" as="targetPoint" />
          </mxGeometry>
        </mxCell>
        <mxCell id="MV6OpVxTvDD_PxkE7c-I-149" value="insertRating(JsonObject)" style="html=1;verticalAlign=bottom;endArrow=block;curved=0;rounded=0;entryX=0.5;entryY=0;entryDx=0;entryDy=0;entryPerimeter=0;" parent="1" edge="1">
          <mxGeometry width="80" relative="1" as="geometry">
            <mxPoint x="830" y="1380" as="sourcePoint" />
            <mxPoint x="1030" y="1380" as="targetPoint" />
          </mxGeometry>
        </mxCell>
        <mxCell id="MV6OpVxTvDD_PxkE7c-I-150" value="return" style="html=1;verticalAlign=bottom;endArrow=open;dashed=1;endSize=8;edgeStyle=elbowEdgeStyle;elbow=vertical;curved=0;rounded=0;exitX=0.5;exitY=0.447;exitDx=0;exitDy=0;exitPerimeter=0;entryX=0.5;entryY=0.015;entryDx=0;entryDy=0;entryPerimeter=0;" parent="1" edge="1">
          <mxGeometry x="-0.0354" relative="1" as="geometry">
            <mxPoint x="830" y="1430" as="targetPoint" />
            <Array as="points">
              <mxPoint x="850.5" y="1430" />
            </Array>
            <mxPoint x="1025" y="1430.09" as="sourcePoint" />
            <mxPoint as="offset" />
          </mxGeometry>
        </mxCell>
        <mxCell id="MV6OpVxTvDD_PxkE7c-I-151" value="fetchProfessor(profId)" style="html=1;verticalAlign=bottom;endArrow=block;curved=0;rounded=0;entryX=0.5;entryY=0;entryDx=0;entryDy=0;entryPerimeter=0;" parent="1" edge="1">
          <mxGeometry width="80" relative="1" as="geometry">
            <mxPoint x="830" y="1410" as="sourcePoint" />
            <mxPoint x="1030" y="1410" as="targetPoint" />
            <mxPoint as="offset" />
          </mxGeometry>
        </mxCell>
        <mxCell id="MV6OpVxTvDD_PxkE7c-I-152" value="getProfessor(profId)" style="html=1;verticalAlign=bottom;endArrow=block;curved=0;rounded=0;entryX=0.5;entryY=0;entryDx=0;entryDy=0;entryPerimeter=0;" parent="1" edge="1">
          <mxGeometry width="80" relative="1" as="geometry">
            <mxPoint x="630" y="1410" as="sourcePoint" />
            <mxPoint x="830" y="1410" as="targetPoint" />
          </mxGeometry>
        </mxCell>
        <mxCell id="MV6OpVxTvDD_PxkE7c-I-153" value="return" style="html=1;verticalAlign=bottom;endArrow=open;dashed=1;endSize=8;edgeStyle=elbowEdgeStyle;elbow=vertical;curved=0;rounded=0;exitX=0.5;exitY=0.447;exitDx=0;exitDy=0;exitPerimeter=0;entryX=0.5;entryY=0.015;entryDx=0;entryDy=0;entryPerimeter=0;" parent="1" edge="1">
          <mxGeometry x="-0.0354" relative="1" as="geometry">
            <mxPoint x="630" y="1430" as="targetPoint" />
            <Array as="points">
              <mxPoint x="650.5" y="1430" />
            </Array>
            <mxPoint x="825" y="1430.09" as="sourcePoint" />
            <mxPoint as="offset" />
          </mxGeometry>
        </mxCell>
      </root>
    </mxGraphModel>
  </diagram>
</mxfile>
